<?xml version="1.0" encoding="UTF-8" standalone="no" ?>
<!DOCTYPE svg PUBLIC "-//W3C//DTD SVG 1.1//EN" "http://www.w3.org/Graphics/SVG/1.1/DTD/svg11.dtd">
<svg xmlns="http://www.w3.org/2000/svg" xmlns:xlink="http://www.w3.org/1999/xlink" version="1.1" width="1280" height="1024" viewBox="0 0 1280 1024" xml:space="preserve">
<desc>Created with Fabric.js 3.1.0</desc>
<defs>
</defs>
<g transform="matrix(1.9692780337941629 0 0 1.9692780337941629 640.0153846153846 512.012312418764)" id="background-logo"  >
<rect style="stroke: none; stroke-width: 1; stroke-dasharray: none; stroke-linecap: butt; stroke-dashoffset: 0; stroke-linejoin: miter; stroke-miterlimit: 10; fill: rgb(255,255,255); fill-rule: nonzero; opacity: 1;"  paint-order="stroke"  x="-325" y="-260" rx="0" ry="0" width="650" height="520" />
</g>
<g transform="matrix(1.9692780337941629 0 0 1.9692780337941629 640.0153846153846 409.5738776113092)" style="" id="logo-logo"  >
	<g transform="matrix(0.28 0 0 -0.28 -43.671944117376995 -18.02422335249915)"  >
<path style="stroke: none; stroke-width: 1; stroke-dasharray: none; stroke-linecap: butt; stroke-dashoffset: 0; stroke-linejoin: miter; stroke-miterlimit: 10; fill: rgb(25,40,65); fill-rule: nonzero; opacity: 1;"  paint-order="stroke"  transform=" translate(-1461.0616148293698, -1599.93462973518)" d="m 1143.1 1320.44 l 440.15 653.74 c 40.56 60.24 143.4 54.74 175.73 -11.35 l 29.61 -60.54 c -38.41 45.07 -84.33 36.15 -124.51 -3.09 c -39.35 -38.44 -189.76 -254.97 -225.11 -338.89 c -45.97 -109.12 -43.09 -259.64 8.18 -376.53 c -99.72 6.86 -204.37 14.51 -235.29 23.17 c -51.62 14.53 -99.24 58.07 -68.76 113.49" stroke-linecap="round" />
</g>
	<g transform="matrix(0.28 0 0 -0.28 -14.201944117377025 72.54977664750092)"  >
<path style="stroke: none; stroke-width: 1; stroke-dasharray: none; stroke-linecap: butt; stroke-dashoffset: 0; stroke-linejoin: miter; stroke-miterlimit: 10; fill: rgb(244,99,37); fill-rule: nonzero; opacity: 1;"  paint-order="stroke"  transform=" translate(-1566.149387956637, -1276.96)" d="m 1971.88 1060.56 l -783.54 54.13 c -72.41 5.01 -126.95 85.23 -78.01 157.89 c 12.56 18.65 25.08 37.28 37.64 55.9 c -39.88 -59.21 9.79 -106.33 63.89 -121.53 c 52.93 -14.79 321.73 -26.72 412.25 -36.71 c 268.59 -29.7 316.37 170.37 254.28 323.12 c 70.79 -94.55 150.71 -278.81 159.52 -325.59 c 10.76 -56.94 -9.69 -95.84 -66.03 -107.21" stroke-linecap="round" />
</g>
	<g transform="matrix(0.28 0 0 -0.28 49.82305588262295 11.722776647500922)"  >
<path style="stroke: none; stroke-width: 1; stroke-dasharray: none; stroke-linecap: butt; stroke-dashoffset: 0; stroke-linejoin: miter; stroke-miterlimit: 10; fill: rgb(25,40,65); fill-rule: nonzero; opacity: 1;"  paint-order="stroke"  transform=" translate(-1794.4510600739795, -1493.860790439444)" d="m 1788.59 1902.29 c -38.41 45.07 -84.33 36.15 -124.51 -3.09 c -36.77 -36.02 -170.91 -227.94 -216.93 -321.2 c 145.45 40.19 307.01 37.57 399.24 -47.91 c 76.31 -70.73 181.34 -308.28 191.52 -362.32 c 10.91 -57.79 -10.27 -97.01 -68.52 -107.69 l 67.25 -4.66 c 73.38 -5.07 127.29 78.94 96.07 142.77 c -59.79 122.33 -233.92 478.63 -344.12 704.1" stroke-linecap="round" />
</g>
	<g transform="matrix(0.28 0 0 -0.28 15.730055882622992 41.06177664750081)"  >
<linearGradient id="SVGID_127865" gradientUnits="userSpaceOnUse" gradientTransform="matrix(-212.834 -316.092 -251.318 169.22 1875.64 1470.57)"  x1="0" y1="0" x2="1" y2="0">
<stop offset="0%" style="stop-color:rgb(111,201,226);stop-opacity: 1"/>
<stop offset="59%" style="stop-color:rgb(57,162,216);stop-opacity: 1"/>
<stop offset="100%" style="stop-color:rgb(44,144,209);stop-opacity: 1"/>
</linearGradient>
<path style="stroke: none; stroke-width: 1; stroke-dasharray: none; stroke-linecap: butt; stroke-dashoffset: 0; stroke-linejoin: miter; stroke-miterlimit: 10; fill: url(#SVGID_127865); fill-rule: nonzero; opacity: 1;"  paint-order="stroke"  transform=" translate(-1672.879978752852, -1389.2400091379297)" d="m 1774.51 1369.74 l -174.9 -102.29 c -14.8 -10.16 -38.32 -1.28 -38.47 18.76 l -1.12 204.67 c -0.09 17.46 21.09 30.31 36.43 21.56 l 177.87 -101.35 c 15.15 -8.65 15.24 -32.56 0.19 -41.35" stroke-linecap="round" />
</g>
</g>
<g transform="matrix(1.9692780337941629 0 0 1.9692780337941629 639.4653714145397 795.8546604870777)" id="text-logo-path"  >
<path style="stroke: none; stroke-width: 1; stroke-dasharray: none; stroke-linecap: butt; stroke-dashoffset: 0; stroke-linejoin: miter; stroke-miterlimit: 10; fill: rgb(244,99,37); fill-rule: nonzero; opacity: 1;"  paint-order="stroke"  transform=" translate(-180.67, 18.915)" d="M 3.66 -6.4 L 3.66 -6.4 Q 3.66 -7.35 3.78 -9.4 Q 3.9 -11.46 4.11 -14.26 Q 4.32 -17.05 4.57 -20.37 Q 4.82 -23.7 5.1 -27.14 L 5.1 -27.14 Q 5.45 -31.39 5.71 -34.45 Q 5.98 -37.51 6.12 -39.71 Q 6.26 -41.91 6.36 -43.38 Q 6.47 -44.86 6.5 -45.97 Q 6.54 -47.07 6.57 -48.02 Q 6.61 -48.97 6.61 -50.03 L 6.61 -50.03 Q 6.61 -50.59 6.98 -50.85 Q 7.35 -51.12 7.7 -51.12 L 7.7 -51.12 Q 9.56 -51.12 11.79 -51.22 Q 14.03 -51.33 16.26 -51.47 Q 18.49 -51.61 20.58 -51.73 Q 22.68 -51.86 24.26 -51.86 L 24.26 -51.86 Q 28.86 -51.86 32.19 -50.73 Q 35.51 -49.61 37.55 -47.48 Q 39.59 -45.35 40.57 -42.33 Q 41.55 -39.3 41.55 -35.44 L 41.55 -35.44 Q 41.55 -31.18 40.43 -27.26 Q 39.3 -23.34 36.93 -20.32 Q 34.56 -17.3 30.81 -15.49 Q 27.07 -13.68 21.9 -13.68 L 21.9 -13.68 Q 18.81 -13.68 16.63 -14.34 L 16.63 -14.34 L 15.61 -1.09 Q 15.54 -0.53 15.33 -0.26 Q 15.12 0 14.48 0 L 14.48 0 L 11.14 0 Q 7.03 0 5.34 -1.62 Q 3.66 -3.23 3.66 -6.4 Z M 17.37 -24.26 L 17.37 -24.26 Q 18.46 -23.98 19.49 -23.87 Q 20.53 -23.77 21.38 -23.77 L 21.38 -23.77 Q 23.91 -23.77 25.45 -24.94 Q 27 -26.12 27.86 -27.86 Q 28.72 -29.6 29.02 -31.46 Q 29.32 -33.33 29.32 -34.7 L 29.32 -34.7 Q 29.32 -37.79 27.9 -39.41 Q 26.47 -41.03 22.82 -41.03 L 22.82 -41.03 Q 21.87 -41.03 20.72 -40.92 Q 19.58 -40.82 18.28 -40.68 L 18.28 -40.68 Q 18.14 -37.65 17.93 -33.33 Q 17.72 -29 17.37 -24.26 Z M 44.65 5.7 L 44.65 5.7 Q 44.65 4.32 45.25 3.32 Q 45.84 2.32 46.86 1.67 Q 47.88 1.02 49.2 0.69 Q 50.52 0.35 51.96 0.35 L 51.96 0.35 Q 52.66 0.35 53 1.07 Q 53.33 1.79 54.02 2.69 Q 54.7 3.59 56.21 4.31 Q 57.73 5.03 60.75 5.03 L 60.75 5.03 Q 63.42 5.03 65.07 3.74 Q 66.73 2.46 67.62 0.44 Q 68.52 -1.58 68.82 -3.96 Q 69.12 -6.33 69.12 -8.51 L 69.12 -8.51 Q 67.96 -6.5 66.55 -5.24 Q 65.14 -3.97 63.63 -3.29 Q 62.12 -2.6 60.61 -2.37 Q 59.1 -2.14 57.73 -2.14 L 57.73 -2.14 Q 55.05 -2.14 52.88 -2.87 Q 50.7 -3.59 49.1 -5.22 Q 47.5 -6.86 46.63 -9.44 Q 45.77 -12.02 45.77 -15.68 L 45.77 -15.68 Q 45.77 -17.05 45.91 -19.32 Q 46.05 -21.59 46.28 -24.43 Q 46.51 -27.28 46.76 -30.6 Q 47 -33.93 47.29 -37.37 L 47.29 -37.37 Q 47.43 -39.59 49.32 -39.59 L 49.32 -39.59 L 51.61 -39.59 Q 53.93 -39.59 55.37 -39.16 Q 56.81 -38.74 57.64 -37.92 Q 58.46 -37.09 58.75 -35.82 Q 59.03 -34.56 59.03 -32.98 L 59.03 -32.98 Q 59.03 -31.32 58.82 -29.06 Q 58.61 -26.79 58.36 -24.52 Q 58.11 -22.25 57.88 -20.27 Q 57.66 -18.28 57.66 -17.19 L 57.66 -17.19 Q 57.66 -14.45 58.99 -13.13 Q 60.33 -11.81 62.26 -11.81 L 62.26 -11.81 Q 65.64 -11.81 67.66 -15.35 Q 69.68 -18.88 70.21 -24.68 L 70.21 -24.68 L 71.33 -38.14 Q 71.4 -38.95 71.88 -39.27 Q 72.35 -39.59 72.91 -39.59 L 72.91 -39.59 L 75.52 -39.59 Q 77.03 -39.59 78.36 -39.34 Q 79.7 -39.09 80.7 -38.41 Q 81.7 -37.72 82.28 -36.58 Q 82.86 -35.44 82.86 -33.61 L 82.86 -33.61 Q 82.86 -32.91 82.76 -30.92 Q 82.65 -28.93 82.41 -25.22 Q 82.16 -21.52 81.72 -15.87 Q 81.28 -10.23 80.72 -2.07 L 80.72 -2.07 Q 80.37 2.67 78.59 5.8 Q 76.82 8.93 74.14 10.76 Q 71.47 12.59 68.17 13.31 Q 64.86 14.03 61.42 14.03 L 61.42 14.03 Q 57.76 14.03 54.69 13.38 Q 51.61 12.73 49.38 11.58 Q 47.14 10.44 45.9 8.93 Q 44.65 7.42 44.65 5.7 Z M 84.94 -42.05 L 84.94 -42.05 L 85.18 -46.09 Q 85.25 -47.04 85.5 -47.94 Q 85.75 -48.83 86.33 -49.55 Q 86.91 -50.27 87.8 -50.7 Q 88.7 -51.12 90 -51.12 L 90 -51.12 L 122.17 -51.12 Q 122.59 -51.12 122.96 -50.91 Q 123.33 -50.7 123.33 -50.1 L 123.33 -50.1 L 123.05 -45.88 Q 122.91 -43.73 121.85 -42.38 Q 120.8 -41.03 117.56 -41.03 L 117.56 -41.03 L 109.79 -41.03 L 107.05 -1.09 Q 106.98 0 106.28 0 L 106.28 0 L 102.3 0 Q 98.26 0 96.54 -1.58 Q 94.82 -3.16 94.82 -6.12 L 94.82 -6.12 Q 94.82 -7.21 94.92 -9.37 Q 95.03 -11.53 95.24 -14.45 Q 95.45 -17.37 95.71 -20.78 Q 95.98 -24.19 96.26 -27.69 Q 96.54 -31.18 96.8 -34.63 Q 97.07 -38.07 97.28 -41.03 L 97.28 -41.03 L 85.75 -41.03 Q 84.94 -41.03 84.94 -42.05 Z M 119.14 -4.75 L 119.14 -4.75 Q 119.14 -6.33 120.16 -9.93 Q 121.18 -13.54 122.73 -18.11 Q 124.28 -22.68 126.18 -27.69 Q 128.07 -32.7 129.88 -37.16 Q 131.7 -41.63 133.17 -45 Q 134.65 -48.38 135.42 -49.75 L 135.42 -49.75 Q 135.98 -50.77 136.46 -50.94 Q 136.93 -51.12 138.23 -51.12 L 138.23 -51.12 L 145.09 -51.12 Q 146.88 -51.12 148.06 -50.43 Q 149.24 -49.75 150.03 -48.64 Q 150.82 -47.53 151.33 -46.09 Q 151.84 -44.65 152.19 -43.14 L 152.19 -43.14 Q 155.07 -31.46 156.96 -23.91 Q 158.84 -16.35 159.91 -11.71 Q 160.98 -7.07 161.42 -4.83 Q 161.86 -2.6 161.86 -1.72 L 161.86 -1.72 Q 161.86 -0.7 161.38 -0.35 Q 160.91 0 159.89 0 L 159.89 0 L 156.23 0 Q 153.14 0 151.29 -0.76 Q 149.45 -1.51 148.48 -2.95 Q 147.52 -4.39 147.09 -6.45 Q 146.67 -8.51 146.36 -11.07 L 146.36 -11.07 L 133.84 -11.07 L 131.45 -1.16 Q 131.1 0 129.8 0 L 129.8 0 L 126 0 Q 124.84 0 123.61 -0.25 Q 122.38 -0.49 121.41 -1.07 Q 120.45 -1.65 119.79 -2.55 Q 119.14 -3.45 119.14 -4.75 Z M 141.68 -40.54 L 136.44 -21.52 L 144.7 -21.52 L 141.68 -40.54 Z M 165.59 -21.73 L 165.59 -21.73 Q 165.59 -24.19 165.87 -27.39 Q 166.15 -30.59 167.06 -33.94 Q 167.98 -37.3 169.66 -40.5 Q 171.35 -43.7 174.13 -46.21 Q 176.91 -48.73 180.93 -50.29 Q 184.96 -51.86 190.58 -51.86 L 190.58 -51.86 Q 194.24 -51.86 197.16 -51.06 Q 200.07 -50.27 202.13 -48.83 Q 204.19 -47.39 205.29 -45.3 Q 206.4 -43.21 206.4 -40.61 L 206.4 -40.61 Q 206.4 -36.42 203.68 -34.29 Q 200.95 -32.17 195.96 -32.17 L 195.96 -32.17 Q 194.38 -32.17 194.06 -32.43 Q 193.75 -32.7 193.68 -33.47 L 193.68 -33.47 Q 193.54 -34.77 193.5 -36.07 Q 193.46 -37.37 193.13 -38.44 Q 192.8 -39.52 192.01 -40.17 Q 191.21 -40.82 189.49 -40.82 L 189.49 -40.82 Q 185.98 -40.82 183.88 -38.81 Q 181.79 -36.81 180.7 -33.93 Q 179.61 -31.04 179.33 -27.98 Q 179.05 -24.93 179.05 -22.82 L 179.05 -22.82 Q 179.05 -19.37 179.49 -17.03 Q 179.93 -14.7 180.76 -13.22 Q 181.58 -11.74 182.72 -11.13 Q 183.87 -10.51 185.38 -10.51 L 185.38 -10.51 Q 188.12 -10.51 189.98 -11.67 Q 191.85 -12.83 192.23 -15.86 L 192.23 -15.86 L 192.66 -19.86 Q 192.87 -21.94 193.24 -23.27 Q 193.61 -24.61 194.98 -24.61 L 194.98 -24.61 L 198.91 -24.61 Q 200.71 -24.61 201.83 -24.22 Q 202.96 -23.84 203.57 -22.94 Q 204.19 -22.04 204.4 -20.6 Q 204.61 -19.16 204.61 -17.05 L 204.61 -17.05 Q 204.61 -15.61 204.5 -13.24 Q 204.4 -10.86 204.22 -8.42 Q 204.05 -5.98 203.82 -3.92 Q 203.59 -1.86 203.45 -1.09 L 203.45 -1.09 Q 203.31 -0.46 203.1 -0.23 Q 202.89 0 202.22 0 L 202.22 0 L 198.28 0 Q 194.55 0 192.92 -1.55 Q 191.29 -3.09 191.14 -5.41 L 191.14 -5.41 Q 190.34 -2.95 187.79 -1.13 Q 185.24 0.7 180.42 0.7 L 180.42 0.7 Q 177.61 0.7 174.94 -0.4 Q 172.27 -1.51 170.19 -4.1 Q 168.12 -6.68 166.85 -11 Q 165.59 -15.33 165.59 -21.73 Z M 210.41 -17.3 L 210.41 -17.3 Q 210.41 -21.62 211.46 -25.75 Q 212.52 -29.88 215.03 -33.12 Q 217.55 -36.35 221.7 -38.34 Q 225.84 -40.32 232.03 -40.32 L 232.03 -40.32 Q 241.1 -40.32 245.02 -35.89 Q 248.94 -31.46 248.94 -23.48 L 248.94 -23.48 Q 248.94 -21.27 248.63 -18.56 Q 248.31 -15.86 247.39 -13.18 Q 246.48 -10.51 244.93 -8 Q 243.39 -5.48 241.01 -3.53 Q 238.64 -1.58 235.3 -0.44 Q 231.96 0.7 227.43 0.7 L 227.43 0.7 Q 222.47 0.7 219.18 -0.69 Q 215.89 -2.07 213.94 -4.54 Q 211.99 -7 211.2 -10.27 Q 210.41 -13.54 210.41 -17.3 Z M 222.68 -18.07 L 222.68 -18.07 Q 222.68 -13.32 224.19 -11.09 Q 225.7 -8.86 228.48 -8.86 L 228.48 -8.86 Q 231.01 -8.86 232.63 -10.44 Q 234.25 -12.02 235.14 -14.26 Q 236.04 -16.49 236.37 -18.93 Q 236.71 -21.38 236.71 -23.03 L 236.71 -23.03 Q 236.71 -26.61 235.37 -28.67 Q 234.04 -30.73 230.8 -30.73 L 230.8 -30.73 Q 228.06 -30.73 226.44 -29.34 Q 224.82 -27.95 224 -25.96 Q 223.17 -23.98 222.93 -21.78 Q 222.68 -19.58 222.68 -18.07 Z M 254.39 -6.86 L 254.39 -6.86 Q 254.39 -7.95 254.5 -9.91 Q 254.6 -11.88 254.9 -15.38 Q 255.2 -18.88 255.59 -24.24 Q 255.97 -29.6 256.54 -37.51 L 256.54 -37.51 Q 256.68 -39.59 258.05 -39.59 L 258.05 -39.59 L 260.86 -39.59 Q 262.86 -39.59 264.25 -39.16 Q 265.64 -38.74 266.5 -37.99 Q 267.36 -37.23 267.75 -36.21 Q 268.14 -35.19 268.28 -34.14 L 268.28 -34.14 Q 269.16 -35.79 270.33 -36.97 Q 271.51 -38.14 272.81 -38.9 Q 274.11 -39.66 275.48 -39.99 Q 276.86 -40.32 278.02 -40.32 L 278.02 -40.32 Q 279.39 -40.32 280.79 -39.81 Q 282.2 -39.3 283.34 -38.3 Q 284.48 -37.3 285.17 -35.72 Q 285.86 -34.14 285.86 -31.96 L 285.86 -31.96 Q 285.86 -30.02 285.28 -28.3 Q 284.7 -26.58 283.62 -25.24 Q 282.55 -23.91 280.99 -23.15 Q 279.42 -22.39 277.56 -22.39 L 277.56 -22.39 Q 277.14 -22.39 276.59 -22.43 Q 276.05 -22.46 275.55 -22.57 Q 275.06 -22.68 274.69 -22.85 Q 274.32 -23.03 274.32 -23.34 L 274.32 -23.34 Q 274.32 -24.29 274.39 -25.07 Q 274.46 -25.84 274.46 -26.72 L 274.46 -26.72 Q 274.46 -28.3 274.04 -29.3 Q 273.62 -30.3 272.32 -30.3 L 272.32 -30.3 Q 270.32 -30.3 268.98 -27.69 Q 267.64 -25.07 267.29 -19.79 L 267.29 -19.79 Q 267.15 -17.47 266.89 -14.57 Q 266.63 -11.67 266.41 -8.96 Q 266.2 -6.26 266.06 -4.17 Q 265.92 -2.07 265.92 -1.44 L 265.92 -1.44 Q 265.92 -0.74 265.41 -0.37 Q 264.9 0 264.34 0 L 264.34 0 L 261.74 0 Q 259.52 0 258.12 -0.47 Q 256.71 -0.95 255.87 -1.81 Q 255.02 -2.67 254.71 -3.92 Q 254.39 -5.17 254.39 -6.86 Z M 286.35 -8.86 L 286.35 -8.86 Q 286.35 -15.33 292.17 -19 Q 297.98 -22.68 309.38 -22.96 L 309.38 -22.96 Q 309.45 -23.77 309.48 -24.31 Q 309.52 -24.86 309.52 -25.63 L 309.52 -25.63 Q 309.52 -27.95 308.65 -29.3 Q 307.79 -30.66 305.05 -30.66 L 305.05 -30.66 Q 303.54 -30.66 302.61 -30.23 Q 301.68 -29.81 301.1 -29.06 Q 300.52 -28.3 300.16 -27.21 Q 299.81 -26.12 299.5 -24.86 L 299.5 -24.86 Q 299.36 -24.22 298.86 -24.03 Q 298.37 -23.84 297.28 -23.84 L 297.28 -23.84 Q 289.93 -23.84 289.93 -29.39 L 289.93 -29.39 Q 289.93 -31.61 290.97 -33.63 Q 292.01 -35.65 294.06 -37.13 Q 296.12 -38.6 299.21 -39.46 Q 302.31 -40.32 306.42 -40.32 L 306.42 -40.32 Q 314.4 -40.32 318.01 -37 Q 321.61 -33.68 321.61 -27.63 L 321.61 -27.63 Q 321.61 -26.82 321.43 -24.79 Q 321.26 -22.75 320.99 -20.48 Q 320.73 -18.21 320.55 -16.19 Q 320.38 -14.17 320.38 -13.39 L 320.38 -13.39 Q 320.38 -11.6 321.03 -10.85 Q 321.68 -10.09 322.51 -9.79 Q 323.33 -9.49 323.98 -9.35 Q 324.63 -9.21 324.63 -8.65 L 324.63 -8.65 Q 324.63 -7.07 324.19 -5.4 Q 323.75 -3.73 322.79 -2.37 Q 321.82 -1.02 320.13 -0.16 Q 318.45 0.7 315.98 0.7 L 315.98 0.7 Q 312.54 0.7 310.82 -0.95 Q 309.09 -2.6 308.5 -5.55 L 308.5 -5.55 Q 306.77 -3.02 304 -1.16 Q 301.22 0.7 296.75 0.7 L 296.75 0.7 Q 294.61 0.7 292.71 0.21 Q 290.81 -0.28 289.41 -1.44 Q 288 -2.6 287.17 -4.43 Q 286.35 -6.26 286.35 -8.86 Z M 298.72 -11.81 L 298.72 -11.81 Q 298.72 -10.16 299.76 -9.51 Q 300.8 -8.86 302.03 -8.86 L 302.03 -8.86 Q 303.19 -8.86 304.33 -9.37 Q 305.47 -9.88 306.37 -10.92 Q 307.27 -11.95 307.92 -13.46 Q 308.57 -14.98 308.71 -17.05 L 308.71 -17.05 Q 306.84 -17.05 305.05 -16.77 Q 303.26 -16.49 301.85 -15.87 Q 300.45 -15.26 299.58 -14.26 Q 298.72 -13.25 298.72 -11.81 Z M 326.78 -5.34 L 326.78 -5.34 Q 326.78 -5.98 327.04 -6.91 Q 327.3 -7.84 327.85 -8.7 Q 328.39 -9.56 329.15 -10.18 Q 329.91 -10.79 330.96 -10.79 L 330.96 -10.79 Q 331.84 -10.79 332.56 -10.37 Q 333.28 -9.95 334.25 -9.47 Q 335.21 -9 336.66 -8.56 Q 338.1 -8.12 340.49 -8.12 L 340.49 -8.12 Q 342.28 -8.12 343.69 -8.56 Q 345.09 -9 345.09 -10.51 L 345.09 -10.51 Q 345.09 -11.88 343.93 -12.71 Q 342.77 -13.54 341.02 -14.26 Q 339.26 -14.98 337.2 -15.8 Q 335.14 -16.63 333.39 -18 Q 331.63 -19.37 330.47 -21.5 Q 329.31 -23.63 329.31 -27 L 329.31 -27 Q 329.31 -30.66 330.79 -33.22 Q 332.26 -35.79 334.6 -37.37 Q 336.94 -38.95 339.89 -39.64 Q 342.84 -40.32 345.8 -40.32 L 345.8 -40.32 Q 351.91 -40.32 354.8 -37.92 Q 357.68 -35.51 357.68 -31.75 L 357.68 -31.75 Q 357.68 -28.58 355.69 -26.93 Q 353.71 -25.28 349.98 -25.28 L 349.98 -25.28 Q 348.96 -25.28 348.61 -25.49 Q 348.26 -25.7 348.26 -26.3 L 348.26 -26.3 Q 348.26 -26.93 348.15 -27.76 Q 348.05 -28.58 347.64 -29.34 Q 347.24 -30.09 346.41 -30.6 Q 345.59 -31.11 344.07 -31.11 L 344.07 -31.11 Q 342.07 -31.11 340.84 -30.13 Q 339.61 -29.14 339.61 -27.7 L 339.61 -27.7 Q 339.61 -26.19 340.88 -25.29 Q 342.14 -24.4 344.04 -23.61 Q 345.94 -22.82 348.17 -21.99 Q 350.4 -21.16 352.32 -19.79 Q 354.23 -18.42 355.48 -16.38 Q 356.73 -14.34 356.73 -11.07 L 356.73 -11.07 Q 356.73 -5.91 353.07 -2.6 Q 349.42 0.7 342.07 0.7 L 342.07 0.7 Q 340.07 0.7 337.43 0.39 Q 334.79 0.07 332.42 -0.62 Q 330.05 -1.3 328.41 -2.44 Q 326.78 -3.59 326.78 -5.34 Z" stroke-linecap="round" />
</g>
</svg>